<?xml version="1.0" encoding="utf-8"?>
<!-- Generator: Adobe Illustrator 13.0.0, SVG Export Plug-In . SVG Version: 6.00 Build 14948)  -->
<!DOCTYPE svg PUBLIC "-//W3C//DTD SVG 1.0//EN" "http://www.w3.org/TR/2001/REC-SVG-20010904/DTD/svg10.dtd">
<svg version="1.0"
	 id="svg3973" sodipodi:version="0.32" sodipodi:docname="Localització de xxx respecte del Baix Llobregat.svg" sodipodi:docbase="D:\procediment\Mapix\Països Catalans\Autonomies dels PPCC\Catalunya\Mapes de Catalunya\Mapes de Catalunya en SVG\Plantilles comarcals per a mapes municipals de Catalunya" inkscape:version="0.44" xmlns:dc="http://purl.org/dc/elements/1.1/" xmlns:cc="http://web.resource.org/cc/" xmlns:rdf="http://www.w3.org/1999/02/22-rdf-syntax-ns#" xmlns:svg="http://www.w3.org/2000/svg" xmlns:sodipodi="http://sodipodi.sourceforge.net/DTD/sodipodi-0.dtd" xmlns:inkscape="http://www.inkscape.org/namespaces/inkscape"
	 xmlns="http://www.w3.org/2000/svg" xmlns:xlink="http://www.w3.org/1999/xlink" x="0px" y="0px" width="167.313px"
	 height="216.34px" viewBox="0 0 167.313 216.34" enable-background="new 0 0 167.313 216.34" xml:space="preserve">
<sodipodi:namedview  id="base" inkscape:window-y="-4" inkscape:window-x="-4" inkscape:window-height="710" inkscape:window-width="1024" inkscape:current-layer="layer1" inkscape:document-units="px" inkscape:pageshadow="2" inkscape:pageopacity="0.0" inkscape:zoom="2.3666395" borderopacity="1.0" bordercolor="#666666" pagecolor="#ffffff" inkscape:cy="108.17026" inkscape:cx="83.656182">
	</sodipodi:namedview>
<g id="layer1" transform="translate(-291.3439,-424.2717)" inkscape:groupmode="layer" inkscape:label="Capa 1">
	<g>
		<defs>
			<rect id="SVGID_1_" x="-592.365" y="-443.422" width="2406.047" height="1653.052"/>
		</defs>
		<clipPath id="SVGID_2_">
			<use xlink:href="#SVGID_1_"  overflow="visible"/>
		</clipPath>
		
			<path id="path1202" clip-path="url(#SVGID_2_)" fill="#E6E6E6" stroke="#000000" stroke-width="0.1" stroke-linecap="round" stroke-linejoin="round" d="
			M318.891,432.015l3.772,6.602l0.943,4.715l-5.658,2.828h-2.829l-5.658,14.145l-3.772,4.715l-0.943-0.942l0.943-0.943l-1.886-0.942
			l-1.886-6.602l-2.829-0.942h-2.829l-1.886-0.943l-2.829-2.829l0.943-2.828l3.772-2.829l3.772-20.746l2.829,2.829l6.601,4.715
			H318.891z"/>
	</g>
	<g>
		<defs>
			<rect id="SVGID_3_" x="-592.365" y="-443.422" width="2406.047" height="1653.052"/>
		</defs>
		<clipPath id="SVGID_4_">
			<use xlink:href="#SVGID_3_"  overflow="visible"/>
		</clipPath>
		
			<path id="path1228" clip-path="url(#SVGID_4_)" fill="#E6E6E6" stroke="#000000" stroke-width="0.1" stroke-linecap="round" stroke-linejoin="round" d="
			M333.979,440.502l-0.943,2.829l-1.886,2.828l-0.943,8.487l-0.943,7.544l6.601,5.657l2.829,0.943l7.544,0.942l-0.943,1.887
			l-16.974,3.771h-1.886l-2.829,3.771h-4.715v-0.942l-4.715-3.772l-3.772-2.828l-4.715-6.602l3.772-4.715l5.658-14.145h2.829
			l5.658-2.828l-0.943-4.715l-3.772-6.602h4.715l2.829,1.886l2.829-0.942l3.772,2.829l3.772,2.829L333.979,440.502z"/>
	</g>
	<g>
		<defs>
			<rect id="SVGID_5_" x="-592.365" y="-443.422" width="2406.047" height="1653.052"/>
		</defs>
		<clipPath id="SVGID_6_">
			<use xlink:href="#SVGID_5_"  overflow="visible"/>
		</clipPath>
		
			<path id="path1260" clip-path="url(#SVGID_6_)" fill="#E6E6E6" stroke="#000000" stroke-width="0.1" stroke-linecap="round" stroke-linejoin="round" d="
			M356.611,466.906h-5.658l-2.829,1.886l-1.886,0.942l-7.544-0.942l-2.829-0.943l-6.601-5.657l0.943-7.544l0.943-8.487l1.886-2.828
			l0.943-2.829l11.316,4.715h4.715l0.943,4.715l0.943,0.942l-0.943,3.772l1.886,1.886l0.943,1.886l1.886,4.715L356.611,466.906z"/>
	</g>
	<g>
		<defs>
			<rect id="SVGID_7_" x="-592.365" y="-443.422" width="2406.047" height="1653.052"/>
		</defs>
		<clipPath id="SVGID_8_">
			<use xlink:href="#SVGID_7_"  overflow="visible"/>
		</clipPath>
		
			<path id="path1334" clip-path="url(#SVGID_8_)" fill="#E6E6E6" stroke="#000000" stroke-width="0.1" stroke-linecap="round" stroke-linejoin="round" d="
			M318.891,484.822v-5.658h4.715l2.829-3.771h1.886l16.974-3.771l0.943-1.887l1.886-0.942l2.829-1.886h5.658l1.886,3.771
			l1.886,1.886l0.943,0.943l3.772,0.942v8.487l-6.601,1.886l-2.829,4.715l-2.829,3.771l-0.943-0.942l-1.886-0.943h-1.886
			l-4.715-1.886l-2.829-2.829l-17.917-0.942L318.891,484.822z"/>
	</g>
	<g>
		<defs>
			<rect id="SVGID_9_" x="-592.365" y="-443.422" width="2406.047" height="1653.052"/>
		</defs>
		<clipPath id="SVGID_10_">
			<use xlink:href="#SVGID_9_"  overflow="visible"/>
		</clipPath>
		
			<path id="path1388" clip-path="url(#SVGID_10_)" fill="#E6E6E6" stroke="#000000" stroke-width="0.1" stroke-linecap="round" stroke-linejoin="round" d="
			M328.321,516.883l-0.943-1.887v-5.657l-0.943-4.715l-4.715-3.772l-6.601-4.715l-3.772-5.657l1.886-4.715h2.829l2.829-0.943
			l3.772,0.943l17.917,0.942l2.829,2.829h-0.943l-5.658-0.943l1.886,2.829l0.943,2.829l-2.829,2.829l2.829,2.829v3.771l1.886,1.886
			l1.886,1.887l1.886,2.828l-2.829,1.887l-8.487,3.771l-4.715,2.829L328.321,516.883z"/>
	</g>
	<g>
		<defs>
			<rect id="SVGID_11_" x="-592.365" y="-443.422" width="2406.047" height="1653.052"/>
		</defs>
		<clipPath id="SVGID_12_">
			<use xlink:href="#SVGID_11_"  overflow="visible"/>
		</clipPath>
		
			<path id="path1394" clip-path="url(#SVGID_12_)" fill="#E6E6E6" stroke="#000000" stroke-width="0.1" stroke-linecap="round" stroke-linejoin="round" d="
			M366.042,513.111l-2.829,1.886l-4.715-0.942l-2.829-1.886l-6.602,5.657l-2.829,0.943h-1.886l-1.886-6.601l2.829-1.887
			l-1.886-2.828l-1.886-1.887l-1.886-1.886v-3.771l-2.829-2.829l2.829-2.829l-0.943-2.829l-1.886-2.829l5.658,0.943h0.943
			l4.715,1.886h1.886l1.886,0.943l-0.943,1.886l1.886,3.771l3.772,2.829l0.943,5.658l4.715,4.715l2.829-2.829v2.829L366.042,513.111
			z"/>
	</g>
	<g>
		<defs>
			<rect id="SVGID_13_" x="-592.365" y="-443.422" width="2406.047" height="1653.052"/>
		</defs>
		<clipPath id="SVGID_14_">
			<use xlink:href="#SVGID_13_"  overflow="visible"/>
		</clipPath>
		
			<path id="path1446" clip-path="url(#SVGID_14_)" fill="#E6E6E6" stroke="#000000" stroke-width="0.1" stroke-linecap="round" stroke-linejoin="round" d="
			M337.751,534.799l0.943-0.943l-9.43-15.087l4.715-2.829l8.487-3.771l1.886,6.601h1.886l2.829-0.943l6.602-5.657l2.829,1.886
			l4.715,0.942l1.886,3.772l-1.886,5.657l0.943,3.772l-2.829,1.886l-2.829,1.886L337.751,534.799z"/>
	</g>
	<g>
		<defs>
			<rect id="SVGID_15_" x="-592.365" y="-443.422" width="2406.047" height="1653.052"/>
		</defs>
		<clipPath id="SVGID_16_">
			<use xlink:href="#SVGID_15_"  overflow="visible"/>
		</clipPath>
		
			<path id="path1452" clip-path="url(#SVGID_16_)" fill="#E6E6E6" stroke="#000000" stroke-width="0.1" stroke-linecap="round" stroke-linejoin="round" d="
			M364.155,528.199l-0.943-3.772l1.886-5.657l-1.886-3.772l2.829-1.886l4.715,2.829l2.829-1.886l3.772,3.771l1.887,5.658
			l1.885,1.886l-2.828,1.886h-2.83l-7.544,0.943H364.155z"/>
	</g>
	<g>
		<defs>
			<rect id="SVGID_17_" x="-592.365" y="-443.422" width="2406.047" height="1653.052"/>
		</defs>
		<clipPath id="SVGID_18_">
			<use xlink:href="#SVGID_17_"  overflow="visible"/>
		</clipPath>
		
			<path id="path1458" clip-path="url(#SVGID_18_)" fill="#E6E6E6" stroke="#000000" stroke-width="0.1" stroke-linecap="round" stroke-linejoin="round" d="
			M403.762,528.199l-1.887,3.771l-3.771,3.772l-1.886,0.942l-6.601,3.772l-4.716-9.43v-5.658l1.886-4.715l0.943-3.771h6.602
			l4.715,1.886l0.943,4.715l2.828,1.886L403.762,528.199z"/>
	</g>
	<g>
		<defs>
			<rect id="SVGID_19_" x="-592.365" y="-443.422" width="2406.047" height="1653.052"/>
		</defs>
		<clipPath id="SVGID_20_">
			<use xlink:href="#SVGID_19_"  overflow="visible"/>
		</clipPath>
		
			<path id="path1472" clip-path="url(#SVGID_20_)" fill="#E6E6E6" stroke="#000000" stroke-width="0.1" stroke-linecap="round" stroke-linejoin="round" d="
			M361.326,542.343h-1.886l-1.886,0.942v0.943l-1.886,0.943l-8.487,5.657h-5.658l-8.487-1.886l-1.886-2.829l3.772-5.657
			l-0.943-0.943l1.886-3.771l1.886-0.943l20.746-2.829l2.829-1.886l2.829-1.886h3.772l7.544-0.943h2.83l2.828-1.886l2.83,2.829
			l-2.83,2.829l-5.658,2.828l-5.658,6.602h-5.658l-2.829,0.942V542.343z"/>
	</g>
	<g>
		<defs>
			<rect id="SVGID_21_" x="-592.365" y="-443.422" width="2406.047" height="1653.052"/>
		</defs>
		<clipPath id="SVGID_22_">
			<use xlink:href="#SVGID_21_"  overflow="visible"/>
		</clipPath>
		
			<path id="path1476" clip-path="url(#SVGID_22_)" fill="#E6E6E6" stroke="#000000" stroke-width="0.1" stroke-linecap="round" stroke-linejoin="round" d="
			M392.445,547.058l-2.828-6.601l6.601-3.772l1.886-0.942l3.771-3.772l1.887-3.771l4.715-1.886l9.43,0.942l-0.942,2.829
			l-0.942,1.886v0.943h-0.943v5.657l-1.887,0.943l1.887,4.715l-0.943,0.943h-1.887l-1.885,1.886l-2.83,1.886l-3.771,4.715
			l0.943,1.886l-7.545,5.658v-2.829l-1.886-3.771L392.445,547.058z"/>
	</g>
	<g>
		<defs>
			<rect id="SVGID_23_" x="-592.365" y="-443.422" width="2406.047" height="1653.052"/>
		</defs>
		<clipPath id="SVGID_24_">
			<use xlink:href="#SVGID_23_"  overflow="visible"/>
		</clipPath>
		
			<path id="path1478" clip-path="url(#SVGID_24_)" fill="#E6E6E6" stroke="#000000" stroke-width="0.1" stroke-linecap="round" stroke-linejoin="round" d="
			M392.445,547.058l-5.658,1.886h-4.715l-1.886-1.886l-0.942-0.943v-1.886h-2.83l-3.771-0.943h-9.43l-1.886-0.942V541.4l2.829-0.942
			h5.658l5.658-6.602l5.658-2.828l2.83-2.829l0.942,2.829l4.716,9.43L392.445,547.058z"/>
	</g>
	<g>
		<defs>
			<rect id="SVGID_25_" x="-592.365" y="-443.422" width="2406.047" height="1653.052"/>
		</defs>
		<clipPath id="SVGID_26_">
			<use xlink:href="#SVGID_25_"  overflow="visible"/>
		</clipPath>
		
			<path id="path1492" clip-path="url(#SVGID_26_)" fill="#E6E6E6" stroke="#000000" stroke-width="0.1" stroke-linecap="round" stroke-linejoin="round" d="
			M383.016,550.83l-3.771,3.772l-2.83-1.887l-6.601-5.657l-3.772,1.886l-1.886,1.886h-1.886l-0.943-1.886l-2.829,1.886v-0.942
			l1.886-1.887l-0.943-2.828l-1.886-0.943v-0.943l1.886-0.942h1.886l1.886,0.942h9.43l3.771,0.943h2.83v1.886l0.942,0.943
			l1.886,1.886L383.016,550.83z"/>
	</g>
	<g>
		<defs>
			<rect id="SVGID_27_" x="-592.365" y="-443.422" width="2406.047" height="1653.052"/>
		</defs>
		<clipPath id="SVGID_28_">
			<use xlink:href="#SVGID_27_"  overflow="visible"/>
		</clipPath>
		
			<path id="path1494" clip-path="url(#SVGID_28_)" fill="#E6E6E6" stroke="#000000" stroke-width="0.1" stroke-linecap="round" stroke-linejoin="round" d="
			M399.99,564.974l-2.83-3.771l7.545-5.658l-0.943-1.886l3.771-4.715l2.83-1.886l1.885-1.886h1.887v0.942l0.943,1.886l0.943-1.886
			l2.828-1.886l2.829-1.886l0.942,1.886l-1.885,0.943v1.886l2.828-2.829l1.887,0.943v0.942L421.679,548v2.829l2.829,1.886v0.943
			l-5.658,2.829l-2.828,2.829l-0.943,1.886v3.771l-2.83,2.829l-8.486,5.658l-2.829-5.658L399.99,564.974z"/>
	</g>
	<g>
		<defs>
			<rect id="SVGID_29_" x="-592.365" y="-443.422" width="2406.047" height="1653.052"/>
		</defs>
		<clipPath id="SVGID_30_">
			<use xlink:href="#SVGID_29_"  overflow="visible"/>
		</clipPath>
		
			<path id="path1498" clip-path="url(#SVGID_30_)" fill="#E6E6E6" stroke="#000000" stroke-width="0.1" stroke-linecap="round" stroke-linejoin="round" d="
			M383.016,569.689l-3.771,1.887l-2.83,3.771h-7.544l-3.772-0.943l-1.886-2.828l-2.829-14.146l-5.658-2.828l-1.886,1.886
			l-0.943,0.942l-1.886,2.829h-1.886l-5.658-0.942h-12.259h-0.943l-0.943-4.715l0.943-3.772l3.772-1.886l8.487,1.886h5.658
			l8.487-5.657l1.886-0.943l1.886,0.943l0.943,2.828l-1.886,1.887v0.942l2.829-1.886l0.943,1.886h1.886l1.886-1.886l3.772-1.886
			l6.601,5.657l2.83,1.887l3.771-3.772l0.943,0.943l0.942,2.829l-4.715,5.657l-1.886,3.772l-0.943,2.828v1.887l3.771,0.942H383.016z
			"/>
	</g>
	<g>
		<defs>
			<rect id="SVGID_31_" x="-592.365" y="-443.422" width="2406.047" height="1653.052"/>
		</defs>
		<clipPath id="SVGID_32_">
			<use xlink:href="#SVGID_31_"  overflow="visible"/>
		</clipPath>
		
			<path id="path1506" clip-path="url(#SVGID_32_)" fill="#E6E6E6" stroke="#000000" stroke-width="0.1" stroke-linecap="round" stroke-linejoin="round" d="
			M383.016,569.689h-1.887l-3.771-0.942v-1.887l0.943-2.828l1.886-3.772l4.715-5.657l-0.942-2.829l-0.943-0.943l-0.943-1.886h4.715
			l5.658-1.886l2.829,7.544l1.886,3.771v2.829l2.83,3.771l-6.602,2.829l-4.715,0.943l-1.887,2.829L383.016,569.689z"/>
	</g>
	<g>
		<defs>
			<rect id="SVGID_33_" x="-592.365" y="-443.422" width="2406.047" height="1653.052"/>
		</defs>
		<clipPath id="SVGID_34_">
			<use xlink:href="#SVGID_33_"  overflow="visible"/>
		</clipPath>
		
			<path id="path1510" clip-path="url(#SVGID_34_)" fill="#E6E6E6" stroke="#000000" stroke-width="0.1" stroke-linecap="round" stroke-linejoin="round" d="
			M423.565,571.576l-3.771-2.829l-3.771-0.943l-1.887,0.943l-1.887-0.943l2.83-2.829v-3.771l0.943-1.886l2.828-2.829l5.658-2.829
			v-0.943l2.829-3.771h7.544l0.943,2.829l0.943,2.829l-2.83,3.771l-6.601,3.771l-1.886,6.602L423.565,571.576z"/>
	</g>
	<g>
		<defs>
			<rect id="SVGID_35_" x="-592.365" y="-443.422" width="2406.047" height="1653.052"/>
		</defs>
		<clipPath id="SVGID_36_">
			<use xlink:href="#SVGID_35_"  overflow="visible"/>
		</clipPath>
		
			<path id="path1514" clip-path="url(#SVGID_36_)" fill="#E6E6E6" stroke="#000000" stroke-width="0.1" stroke-linecap="round" stroke-linejoin="round" d="
			M365.098,574.404l-2.829,2.829v6.601l-1.886,1.887l-6.601-0.943l-8.487-1.886h-3.772l-2.829-0.943l-3.772-4.715l-0.943-5.657
			l-5.658-2.829l-2.829-2.829l-0.943-3.772l4.715-2.828h0.943h12.259l5.658,0.942h1.886l1.886-2.829l0.943-0.942l1.886-1.886
			l5.658,2.828l2.829,14.146L365.098,574.404z"/>
	</g>
	<g>
		<defs>
			<rect id="SVGID_37_" x="-592.365" y="-443.422" width="2406.047" height="1653.052"/>
		</defs>
		<clipPath id="SVGID_38_">
			<use xlink:href="#SVGID_37_"  overflow="visible"/>
		</clipPath>
		
			<path id="path1520" clip-path="url(#SVGID_38_)" fill="#E6E6E6" stroke="#000000" stroke-width="0.1" stroke-linecap="round" stroke-linejoin="round" d="
			M436.768,567.803l-1.887,6.601l-2.829,0.943l-2.829-0.943l-0.943,0.943h-1.885l-0.943-1.886l-1.887-1.886l1.887-2.829l1.886-6.602
			l6.601-3.771l1.887,4.715v2.829L436.768,567.803z"/>
	</g>
	<g>
		<defs>
			<rect id="SVGID_39_" x="-592.365" y="-443.422" width="2406.047" height="1653.052"/>
		</defs>
		<clipPath id="SVGID_40_">
			<use xlink:href="#SVGID_39_"  overflow="visible"/>
		</clipPath>
		
			<path id="path1532" clip-path="url(#SVGID_40_)" fill="#E6E6E6" stroke="#000000" stroke-width="0.1" stroke-linecap="round" stroke-linejoin="round" d="
			M386.787,571.576l1.887-2.829l4.715-0.943l6.602-2.829l0.942,2.829l2.829,5.658l6.602,5.657h-7.545l-4.715,2.829l-0.943-1.886
			l-1.886,2.829l-1.886-0.943h-6.602h-0.943l0.943-4.715l1.887-2.829L386.787,571.576z"/>
	</g>
	<g>
		<defs>
			<rect id="SVGID_41_" x="-592.365" y="-443.422" width="2406.047" height="1653.052"/>
		</defs>
		<clipPath id="SVGID_42_">
			<use xlink:href="#SVGID_41_"  overflow="visible"/>
		</clipPath>
		
			<path id="path1540" clip-path="url(#SVGID_42_)" fill="#E6E6E6" stroke="#000000" stroke-width="0.1" stroke-linecap="round" stroke-linejoin="round" d="
			M403.762,573.461l8.486-5.658l1.887,0.943l1.887-0.943l3.771,0.943l3.771,2.829l1.887,1.886l-8.487,3.771l-1.886,0.943v1.886
			l-1.887,1.886l1.887,1.886l-3.772,3.772l-1.886-1.886l-0.943-2.829l-1.886,2.829l-1.886-3.772l5.658-1.886v-0.943L403.762,573.461
			z"/>
	</g>
	<g>
		<defs>
			<rect id="SVGID_43_" x="-592.365" y="-443.422" width="2406.047" height="1653.052"/>
		</defs>
		<clipPath id="SVGID_44_">
			<use xlink:href="#SVGID_43_"  overflow="visible"/>
		</clipPath>
		
			<path id="path1542" clip-path="url(#SVGID_44_)" fill="#E6E6E6" stroke="#000000" stroke-width="0.1" stroke-linecap="round" stroke-linejoin="round" d="
			M365.098,574.404l3.772,0.943h7.544l2.83-3.771l3.771-1.887l3.771,1.887l1.887,2.828l-1.887,2.829l-0.943,4.715l-1.885,0.943
			l-2.83,6.601l-7.543,1.886l-5.658,4.715l-7.544-2.829v-7.543l1.886-1.887v-6.601L365.098,574.404z"/>
	</g>
	<g>
		<defs>
			<rect id="SVGID_45_" x="-592.365" y="-443.422" width="2406.047" height="1653.052"/>
		</defs>
		<clipPath id="SVGID_46_">
			<use xlink:href="#SVGID_45_"  overflow="visible"/>
		</clipPath>
		
			<path id="path1552" clip-path="url(#SVGID_46_)" fill="#0066FF" stroke="#000000" stroke-width="0.1" stroke-linecap="round" stroke-linejoin="round" d="
			M428.279,575.347l1.887,2.829l2.828,2.829l1.887,3.771l-5.658,3.771l2.829,2.829l-0.942,0.943l-5.658-3.772l-2.83-0.942
			l-0.942,1.886h-1.886l-8.487-1.886l3.772-3.772l-1.887-1.886l1.887-1.886v-1.886l1.886-0.943l8.487-3.771l0.943,1.886H428.279z"/>
	</g>
	<g>
		<defs>
			<rect id="SVGID_47_" x="-592.365" y="-443.422" width="2406.047" height="1653.052"/>
		</defs>
		<clipPath id="SVGID_48_">
			<use xlink:href="#SVGID_47_"  overflow="visible"/>
		</clipPath>
		
			<path id="path1558" clip-path="url(#SVGID_48_)" fill="#E6E6E6" stroke="#000000" stroke-width="0.1" stroke-linecap="round" stroke-linejoin="round" d="
			M392.445,593.263l-2.828-4.715l-2.83-5.657v-0.943h6.602l1.886,0.943l1.886-2.829l0.943,1.886l4.715-2.829h7.545v0.943
			l-5.658,1.886l1.886,3.772l1.886-2.829l0.943,2.829l1.886,1.886l8.487,1.886l0.943,2.829l0.942,0.942l1.886-1.886l0.943,0.943
			l-1.887,2.829l-3.771,4.715l2.829,2.828l-0.942,2.829l-2.83,1.886l0.943,4.716l-3.771,1.886v1.886h-0.943l2.829,7.544l2.829,2.829
			v0.942l-4.715-3.771l-2.83-3.772l-1.885-4.715l-2.83-3.771v-1.886l-12.259-14.145L392.445,593.263z"/>
	</g>
	<g>
		<defs>
			<rect id="SVGID_49_" x="-592.365" y="-443.422" width="2406.047" height="1653.052"/>
		</defs>
		<clipPath id="SVGID_50_">
			<use xlink:href="#SVGID_49_"  overflow="visible"/>
		</clipPath>
		
			<path id="path1564" clip-path="url(#SVGID_50_)" fill="#E6E6E6" stroke="#000000" stroke-width="0.1" stroke-linecap="round" stroke-linejoin="round" d="
			M367.927,596.092l5.658-4.715l7.543-1.886l2.83-6.601l1.885-0.943h0.943v0.943l2.83,5.657l2.828,4.715l-1.886,4.715l-4.716,4.715
			l-3.771,1.887l-0.943,3.771h-1.885l-7.545-3.771l-1.886-1.887l-2.829,0.943v-0.943h-0.943l1.886-1.886v-1.886V596.092z"/>
	</g>
	<g>
		<defs>
			<rect id="SVGID_51_" x="-592.365" y="-443.422" width="2406.047" height="1653.052"/>
		</defs>
		<clipPath id="SVGID_52_">
			<use xlink:href="#SVGID_51_"  overflow="visible"/>
		</clipPath>
		
			<path id="path1566" clip-path="url(#SVGID_52_)" fill="#E6E6E6" stroke="#000000" stroke-width="0.1" stroke-linecap="round" stroke-linejoin="round" d="
			M347.181,623.439l-3.772,4.715l-1.886-0.943l-1.886,2.829l-6.601-1.886h-0.943v1.886h-5.658h-0.943l-0.943-0.943l1.886-8.486
			l-10.373-3.772l-1.886-6.601l0.943-4.715l-0.943-0.942h0.943l2.829-3.772l1.886-4.715l5.658-3.771v-2.829h4.715l4.715-3.771
			l3.772-3.772l2.829,0.943h3.772l8.487,1.886l6.601,0.943v7.543l7.544,2.829v2.829v1.886l-1.886,1.886l-5.658,3.772l-6.601,9.43
			l-0.943,4.715L347.181,623.439z"/>
	</g>
	<g>
		<defs>
			<rect id="SVGID_53_" x="-592.365" y="-443.422" width="2406.047" height="1653.052"/>
		</defs>
		<clipPath id="SVGID_54_">
			<use xlink:href="#SVGID_53_"  overflow="visible"/>
		</clipPath>
		
			<path id="path1582" clip-path="url(#SVGID_54_)" fill="#E6E6E6" stroke="#000000" stroke-width="0.1" stroke-linecap="round" stroke-linejoin="round" d="
			M408.477,636.64l-3.771-3.771l-5.658-6.601l-0.943-3.772l-1.886-5.658l-5.658-3.771l-2.829-2.829l-6.602-1.886l0.943-3.771
			l3.771-1.887l4.716-4.715l1.886-4.715l2.829,1.887l12.259,14.145v1.886l2.83,3.771l1.885,4.715l2.83,3.772l4.715,3.771
			l1.886,5.658L408.477,636.64z"/>
	</g>
	<g>
		<defs>
			<rect id="SVGID_55_" x="-592.365" y="-443.422" width="2406.047" height="1653.052"/>
		</defs>
		<clipPath id="SVGID_56_">
			<use xlink:href="#SVGID_55_"  overflow="visible"/>
		</clipPath>
		
			<path id="path1594" clip-path="url(#SVGID_56_)" fill="#E6E6E6" stroke="#000000" stroke-width="0.1" stroke-linecap="round" stroke-linejoin="round" d="
			M381.129,608.351l6.602,1.886l2.829,2.829l5.658,3.771l1.886,5.658l0.943,3.772l5.658,6.601l3.771,3.771l-10.373,1.886
			l-10.373,1.887l-6.602-16.974l-5.658-3.772l-2.829,1.887l-13.202,8.486l-7.544-5.658l-0.943-1.886l-3.772,0.943l5.658-2.829
			l0.943-4.715l6.601-9.43l5.658-3.772h0.943v0.943l2.829-0.943l1.886,1.887l7.545,3.771H381.129z"/>
	</g>
	<g>
		<defs>
			<rect id="SVGID_57_" x="-592.365" y="-443.422" width="2406.047" height="1653.052"/>
		</defs>
		<clipPath id="SVGID_58_">
			<use xlink:href="#SVGID_57_"  overflow="visible"/>
		</clipPath>
		
			<path id="path1620" clip-path="url(#SVGID_58_)" fill="#E6E6E6" stroke="#000000" stroke-width="0.1" stroke-linecap="round" stroke-linejoin="round" d="
			M359.441,630.04l13.202-8.486l2.829-1.887l5.658,3.772l6.602,16.974h-27.347l-2.829-5.658v-2.829L359.441,630.04z"/>
	</g>
	<g>
		<defs>
			<rect id="SVGID_59_" x="-592.365" y="-443.422" width="2406.047" height="1653.052"/>
		</defs>
		<clipPath id="SVGID_60_">
			<use xlink:href="#SVGID_59_"  overflow="visible"/>
		</clipPath>
		
			<path id="path1886" clip-path="url(#SVGID_60_)" fill="#E6E6E6" stroke="#000000" stroke-width="0.1" stroke-linecap="round" stroke-linejoin="round" d="
			M419.793,627.21v-0.942l-2.829-2.829l-2.829-7.544h0.943v-1.886l3.771-1.886l-0.943-4.716l2.83-1.886l0.942-2.829l-2.829-2.828
			l3.771-4.715l1.887-2.829l-0.943-0.943l-1.886,1.886l-0.942-0.942l-0.943-2.829h1.886l0.942-1.886l2.83,0.942l5.658,3.772
			l3.771,2.829l4.715,5.657l8.487,3.772l8.487,0.942v0.943v0.942l1.886,1.887h-0.942l-1.887-1.887l-0.943,1.887l-2.828,5.657
			l1.886,0.943l-1.886,1.886h-0.943h-0.943l0.943,0.943l0.943,1.886l-0.943-0.943h-1.887h-0.942l-2.829,0.943l-1.887,2.829
			l-7.543,3.771l-14.146,5.658L419.793,627.21z"/>
	</g>
</g>
</svg>
