<?xml version="1.0" encoding="UTF-8" standalone="no"?>
<svg
	xmlns:svg="http://www.w3.org/2000/svg"
	xmlns="http://www.w3.org/2000/svg"
	xmlns:sodipodi="http://sodipodi.sourceforge.net/DTD/sodipodi-0.dtd"
	xmlns:inkscape="http://www.inkscape.org/namespaces/inkscape"
	version="1.0"
	x="0" y="0" width="100%" height="100%"
	viewBox="0 0 380 230"
	xml:space="preserve"
>
<path class="sea" d="M1 1 H 379 V 229 H 1 z" />
<g id="layer1" transform="translate(-234,-420)" inkscape:groupmode="layer" inkscape:label="Capa 1">
	<apath id="cartaajuste" d="M234 420  h379 v229 z"/>
	<g class="city" id="city_08069">
		<path id="Collbató" d="
			M318.891,432.015l3.772,6.602l0.943,4.715l-5.658,2.828h-2.829l-5.658,14.145l-3.772,4.715l-0.943-0.942l0.943-0.943l-1.886-0.942
			l-1.886-6.602l-2.829-0.942h-2.829l-1.886-0.943l-2.829-2.829l0.943-2.828l3.772-2.829l3.772-20.746l2.829,2.829l6.601,4.715
			H318.891z" />
		<text x="308" y="438">Collbató</text>
		<text x="308" y="442" id="number_08069">{number_08069}</text>
	</g>
	<g class="city" id="city_08076">
		<path id="Esparraguera" d="
			M333.979,440.502l-0.943,2.829l-1.886,2.828l-0.943,8.487l-0.943,7.544l6.601,5.657l2.829,0.943l7.544,0.942l-0.943,1.887
			l-16.974,3.771h-1.886l-2.829,3.771h-4.715v-0.942l-4.715-3.772l-3.772-2.828l-4.715-6.602l3.772-4.715l5.658-14.145h2.829
			l5.658-2.828l-0.943-4.715l-3.772-6.602h4.715l2.829,1.886l2.829-0.942l3.772,2.829l3.772,2.829L333.979,440.502z" />
		<text x="318" y="466">Esparraguera</text>
		<text x="318" y="470" id="number_08076">{number_08076}</text>
	</g>
	<g class="city" id="city_08147">
		<path id="Olesa de Montserrat" d="
			M356.611,466.906h-5.658l-2.829,1.886l-1.886,0.942l-7.544-0.942l-2.829-0.943l-6.601-5.657l0.943-7.544l0.943-8.487l1.886-2.828
			l0.943-2.829l11.316,4.715h4.715l0.943,4.715l0.943,0.942l-0.943,3.772l1.886,1.886l0.943,1.886l1.886,4.715L356.611,466.906z" />
		<text x="348" y="455">Olesa de Montserrat</text>
		<text x="348" y="460" id="number_08147">{number_08147}</text>
	</g>
	<g class="city" id="city_08001">
		<path id="Abrera" d="
			M318.891,484.822v-5.658h4.715l2.829-3.771h1.886l16.974-3.771l0.943-1.887l1.886-0.942l2.829-1.886h5.658l1.886,3.771
			l1.886,1.886l0.943,0.943l3.772,0.942v8.487l-6.601,1.886l-2.829,4.715l-2.829,3.771l-0.943-0.942l-1.886-0.943h-1.886
			l-4.715-1.886l-2.829-2.829l-17.917-0.942L318.891,484.822z" />
		<text x="344" y="478">Abrera</text>
		<text x="344" y="482" id="number_08001">{number_08001}</text>
	</g>
	<g class="city" id="city_08208">
		<path id="Sant Esteve Sesrovires" d="
			M328.321,516.883l-0.943-1.887v-5.657l-0.943-4.715l-4.715-3.772l-6.601-4.715l-3.772-5.657l1.886-4.715h2.829l2.829-0.943
			l3.772,0.943l17.917,0.942l2.829,2.829h-0.943l-5.658-0.943l1.886,2.829l0.943,2.829l-2.829,2.829l2.829,2.829v3.771l1.886,1.886
			l1.886,1.887l1.886,2.828l-2.829,1.887l-8.487,3.771l-4.715,2.829L328.321,516.883z" />
		<text x="325" y="496">Sant Esteve</text>
		<text x="325" y="500">Sesrovires</text>
		<text x="325" y="504" id="number_08208">{number_08208}</text>
	</g>
	<g class="city" id="city_08114">
		<path id="Martorell" d="
			M366.042,513.111l-2.829,1.886l-4.715-0.942l-2.829-1.886l-6.602,5.657l-2.829,0.943h-1.886l-1.886-6.601l2.829-1.887
			l-1.886-2.828l-1.886-1.887l-1.886-1.886v-3.771l-2.829-2.829l2.829-2.829l-0.943-2.829l-1.886-2.829l5.658,0.943h0.943
			l4.715,1.886h1.886l1.886,0.943l-0.943,1.886l1.886,3.771l3.772,2.829l0.943,5.658l4.715,4.715l2.829-2.829v2.829L366.042,513.111
			z" />
		<text x="355" y="500">Martorell</text>
		<text x="355" y="504" id="number_08114">{number_08114}</text>
	</g>
	<g class="city" id="city_08066">
		<path id="Castellví de Rosanes" d="
			M337.751,534.799l0.943-0.943l-9.43-15.087l4.715-2.829l8.487-3.771l1.886,6.601h1.886l2.829-0.943l6.602-5.657l2.829,1.886
			l4.715,0.942l1.886,3.772l-1.886,5.657l0.943,3.772l-2.829,1.886l-2.829,1.886L337.751,534.799z" />
		<text x="334" y="524">Castellví de Rosanes</text>
		<text x="334" y="528" id="number_08066">{number_08066}</text>
	</g>
	<g class="city" id="city_08196">
		<path id="Sant Andreu de la Barca" d="
			M364.155,528.199l-0.943-3.772l1.886-5.657l-1.886-3.772l2.829-1.886l4.715,2.829l2.829-1.886l3.772,3.771l1.887,5.658
			l1.885,1.886l-2.828,1.886h-2.83l-7.544,0.943H364.155z" />
		<text x="373" y="511">Sant Andreu</text>
		<text x="373" y="515">de la Barca</text>
		<text x="373" y="519" id="number_08196">{number_08196}</text>
	</g>
	<g class="city" id="city_08158">
		<path id="El Papiol" d="
			M403.762,528.199l-1.887,3.771l-3.771,3.772l-1.886,0.942l-6.601,3.772l-4.716-9.43v-5.658l1.886-4.715l0.943-3.771h6.602
			l4.715,1.886l0.943,4.715l2.828,1.886L403.762,528.199z" />
		<text x="392" y="522">El Papiol</text>
		<text x="392" y="526" id="number_08158">{number_08158}</text>
	</g>
	<g class="city" id="city_08072">
		<path id="Corbera de Llobregat" d="
			M361.326,542.343h-1.886l-1.886,0.942v0.943l-1.886,0.943l-8.487,5.657h-5.658l-8.487-1.886l-1.886-2.829l3.772-5.657
			l-0.943-0.943l1.886-3.771l1.886-0.943l20.746-2.829l2.829-1.886l2.829-1.886h3.772l7.544-0.943h2.83l2.828-1.886l2.83,2.829
			l-2.83,2.829l-5.658,2.828l-5.658,6.602h-5.658l-2.829,0.942V542.343z" />
		<text x="346" y="537">Corbera de Llobregat</text>
		<text x="346" y="541" id="number_08072">{number_08072}</text>
	</g>
	<g class="city" id="city_08123">
		<path id="Molins de Rei" d="
			M392.445,547.058l-2.828-6.601l6.601-3.772l1.886-0.942l3.771-3.772l1.887-3.771l4.715-1.886l9.43,0.942l-0.942,2.829
			l-0.942,1.886v0.943h-0.943v5.657l-1.887,0.943l1.887,4.715l-0.943,0.943h-1.887l-1.885,1.886l-2.83,1.886l-3.771,4.715
			l0.943,1.886l-7.545,5.658v-2.829l-1.886-3.771L392.445,547.058z" />
		<text x="410" y="537">Molins de Rei</text>
		<text x="410" y="541" id="number_08123">{number_08123}</text>
	</g>
	<g class="city" id="city_08157">
		<path id="Pallejà" d="
			M392.445,547.058l-5.658,1.886h-4.715l-1.886-1.886l-0.942-0.943v-1.886h-2.83l-3.771-0.943h-9.43l-1.886-0.942V541.4l2.829-0.942
			h5.658l5.658-6.602l5.658-2.828l2.83-2.829l0.942,2.829l4.716,9.43L392.445,547.058z" />
		<text x="380" y="533">Pallejà</text>
		<text x="380" y="537" id="number_08157">{number_08157}</text>
	</g>
	<g class="city" id="city_08905">
		<path id="La Palma de Cervelló" d="
			M383.016,550.83l-3.771,3.772l-2.83-1.887l-6.601-5.657l-3.772,1.886l-1.886,1.886h-1.886l-0.943-1.886l-2.829,1.886v-0.942
			l1.886-1.887l-0.943-2.828l-1.886-0.943v-0.943l1.886-0.942h1.886l1.886,0.942h9.43l3.771,0.943h2.83v1.886l0.942,0.943
			l1.886,1.886L383.016,550.83z" />
		<text x="370" y="543">La Palma</text>
		<text x="370" y="547" id="number_08905">{number_08905}</text>
	</g>
	<g class="city" id="city_08211">
		<path id="Sant Feliu de Llobregat" d="
			M399.99,564.974l-2.83-3.771l7.545-5.658l-0.943-1.886l3.771-4.715l2.83-1.886l1.885-1.886h1.887v0.942l0.943,1.886l0.943-1.886
			l2.828-1.886l2.829-1.886l0.942,1.886l-1.885,0.943v1.886l2.828-2.829l1.887,0.943v0.942L421.679,548v2.829l2.829,1.886v0.943
			l-5.658,2.829l-2.828,2.829l-0.943,1.886v3.771l-2.83,2.829l-8.486,5.658l-2.829-5.658L399.99,564.974z" />
		<text x="414" y="546">Sant Feliu</text>
		<text x="414" y="550">de Llobregat</text>
		<text x="414" y="554" id="number_08211">{number_08211}</text>
	</g>
	<g class="city" id="city_08068">
		<path id="Cervelló" d="
			M383.016,569.689l-3.771,1.887l-2.83,3.771h-7.544l-3.772-0.943l-1.886-2.828l-2.829-14.146l-5.658-2.828l-1.886,1.886
			l-0.943,0.942l-1.886,2.829h-1.886l-5.658-0.942h-12.259h-0.943l-0.943-4.715l0.943-3.772l3.772-1.886l8.487,1.886h5.658
			l8.487-5.657l1.886-0.943l1.886,0.943l0.943,2.828l-1.886,1.887v0.942l2.829-1.886l0.943,1.886h1.886l1.886-1.886l3.772-1.886
			l6.601,5.657l2.83,1.887l3.771-3.772l0.943,0.943l0.942,2.829l-4.715,5.657l-1.886,3.772l-0.943,2.828v1.887l3.771,0.942H383.016z
			" />
		<text x="367" y="552">Cervelló</text>
		<text x="367" y="556" id="number_08068">{number_08068}</text>
	</g>
	<g class="city" id="city_08263">
		<path id="Sant Vicenç dels Horts" d="
			M383.016,569.689h-1.887l-3.771-0.942v-1.887l0.943-2.828l1.886-3.772l4.715-5.657l-0.942-2.829l-0.943-0.943l-0.943-1.886h4.715
			l5.658-1.886l2.829,7.544l1.886,3.771v2.829l2.83,3.771l-6.602,2.829l-4.715,0.943l-1.887,2.829L383.016,569.689z" />
		<text x="385" y="560">Sant Vicenç dels Horts</text>
		<text x="385" y="564" id="number_08263">{number_08263}</text>
	</g>
	<g class="city" id="city_08221">
		<path id="Sant Just Desvern" d="
			M423.565,571.576l-3.771-2.829l-3.771-0.943l-1.887,0.943l-1.887-0.943l2.83-2.829v-3.771l0.943-1.886l2.828-2.829l5.658-2.829
			v-0.943l2.829-3.771h7.544l0.943,2.829l0.943,2.829l-2.83,3.771l-6.601,3.771l-1.886,6.602L423.565,571.576z" />
		<text x="440" y="548">Sant Just</text>
		<text x="440" y="552">Desvern</text>
		<text x="440" y="556" id="number_08221">{number_08221}</text>
	</g>
	<g class="city" id="city_08295">
		<path id="Vallirana" d="
			M365.098,574.404l-2.829,2.829v6.601l-1.886,1.887l-6.601-0.943l-8.487-1.886h-3.772l-2.829-0.943l-3.772-4.715l-0.943-5.657
			l-5.658-2.829l-2.829-2.829l-0.943-3.772l4.715-2.828h0.943h12.259l5.658,0.942h1.886l1.886-2.829l0.943-0.942l1.886-1.886
			l5.658,2.828l2.829,14.146L365.098,574.404z" />
		<text x="346" y="566">Vallirana</text>
		<text x="346" y="570" id="number_08295">{number_08295}</text>
	</g>
	<g class="city" id="city_08077">
		<path id="Esplugues de Llobregat" d="
			M436.768,567.803l-1.887,6.601l-2.829,0.943l-2.829-0.943l-0.943,0.943h-1.885l-0.943-1.886l-1.887-1.886l1.887-2.829l1.886-6.602
			l6.601-3.771l1.887,4.715v2.829L436.768,567.803z" />
		<text x="446" y="562">Esplugues</text>
		<text x="446" y="566">de Llobregat</text>
		<text x="446" y="570" id="number_08077">{number_08077}</text>
	</g>
	<g class="city" id="city_08244">
		<path id="Santa Coloma de Cervelló" d="
			M386.787,571.576l1.887-2.829l4.715-0.943l6.602-2.829l0.942,2.829l2.829,5.658l6.602,5.657h-7.545l-4.715,2.829l-0.943-1.886
			l-1.886,2.829l-1.886-0.943h-6.602h-0.943l0.943-4.715l1.887-2.829L386.787,571.576z" />
		<text x="396" y="568">Santa Coloma</text>
		<text x="396" y="572">de Cervelló</text>
		<text x="396" y="576" id="number_08244">{number_08244}</text>
	</g>
	<g class="city" id="city_08217">
		<path id="Sant Joan Despí" d="
			M403.762,573.461l8.486-5.658l1.887,0.943l1.887-0.943l3.771,0.943l3.771,2.829l1.887,1.886l-8.487,3.771l-1.886,0.943v1.886
			l-1.887,1.886l1.887,1.886l-3.772,3.772l-1.886-1.886l-0.943-2.829l-1.886,2.829l-1.886-3.772l5.658-1.886v-0.943L403.762,573.461
			z" />
		<text x="416" y="564">Sant Joan</text>
		<text x="416" y="568">Despí</text>
		<text x="416" y="572" id="number_08217">{number_08217}</text>
	</g>
	<g class="city" id="city_08289">
		<path id="Torrelles de Llobregat" d="
			M365.098,574.404l3.772,0.943h7.544l2.83-3.771l3.771-1.887l3.771,1.887l1.887,2.828l-1.887,2.829l-0.943,4.715l-1.885,0.943
			l-2.83,6.601l-7.543,1.886l-5.658,4.715l-7.544-2.829v-7.543l1.886-1.887v-6.601L365.098,574.404z" />
		<text x="370" y="580">Torrelles de Llobregat</text>
		<text x="370" y="584" id="number_08289">{number_08289}</text>
	</g>
	<g class="city" id="city_08073">
		<path id="Cornellà de Llobregat" d="
			M428.279,575.347l1.887,2.829l2.828,2.829l1.887,3.771l-5.658,3.771l2.829,2.829l-0.942,0.943l-5.658-3.772l-2.83-0.942
			l-0.942,1.886h-1.886l-8.487-1.886l3.772-3.772l-1.887-1.886l1.887-1.886v-1.886l1.886-0.943l8.487-3.771l0.943,1.886H428.279z" />
		<text x="440" y="580">Cornellà de Llobregat</text>
		<text x="440" y="584" id="number_08073">{number_08073}</text>
	</g>
	<g class="city" id="city_08200">
		<path id="Sant Boi de Llobregat" d="
			M392.445,593.263l-2.828-4.715l-2.83-5.657v-0.943h6.602l1.886,0.943l1.886-2.829l0.943,1.886l4.715-2.829h7.545v0.943
			l-5.658,1.886l1.886,3.772l1.886-2.829l0.943,2.829l1.886,1.886l8.487,1.886l0.943,2.829l0.942,0.942l1.886-1.886l0.943,0.943
			l-1.887,2.829l-3.771,4.715l2.829,2.828l-0.942,2.829l-2.83,1.886l0.943,4.716l-3.771,1.886v1.886h-0.943l2.829,7.544l2.829,2.829
			v0.942l-4.715-3.771l-2.83-3.772l-1.885-4.715l-2.83-3.771v-1.886l-12.259-14.145L392.445,593.263z" />
		<text x="407" y="588">Sant Boi</text>
		<text x="407" y="592">de Llobregat</text>
		<text x="407" y="596" id="number_08200">{number_08200}</text>
	</g>
	<g class="city" id="city_08204">
		<path id="Sant Climent de Llobregat" d="
			M367.927,596.092l5.658-4.715l7.543-1.886l2.83-6.601l1.885-0.943h0.943v0.943l2.83,5.657l2.828,4.715l-1.886,4.715l-4.716,4.715
			l-3.771,1.887l-0.943,3.771h-1.885l-7.545-3.771l-1.886-1.887l-2.829,0.943v-0.943h-0.943l1.886-1.886v-1.886V596.092z" />
		<text x="378" y="590">Sant Climent</text>
		<text x="378" y="594">de Llobregat</text>
		<text x="378" y="598" id="number_08204">{number_08204}</text>
	</g>
	<g class="city" id="city_08020">
		<path id="Begues" d="
			M347.181,623.439l-3.772,4.715l-1.886-0.943l-1.886,2.829l-6.601-1.886h-0.943v1.886h-5.658h-0.943l-0.943-0.943l1.886-8.486
			l-10.373-3.772l-1.886-6.601l0.943-4.715l-0.943-0.942h0.943l2.829-3.772l1.886-4.715l5.658-3.771v-2.829h4.715l4.715-3.771
			l3.772-3.772l2.829,0.943h3.772l8.487,1.886l6.601,0.943v7.543l7.544,2.829v2.829v1.886l-1.886,1.886l-5.658,3.772l-6.601,9.43
			l-0.943,4.715L347.181,623.439z" />
		<text x="338" y="604">Begues</text>
		<text x="338" y="608" id="number_08020">{number_08020}</text>
	</g>
	<g class="city" id="city_08301">
		<path id="Viladecans" d="
			M408.477,636.64l-3.771-3.771l-5.658-6.601l-0.943-3.772l-1.886-5.658l-5.658-3.771l-2.829-2.829l-6.602-1.886l0.943-3.771
			l3.771-1.887l4.716-4.715l1.886-4.715l2.829,1.887l12.259,14.145v1.886l2.83,3.771l1.885,4.715l2.83,3.772l4.715,3.771
			l1.886,5.658L408.477,636.64z" />
		<text x="400" y="606">Viladecans</text>
		<text x="400" y="610" id="number_08301">{number_08301}</text>
	</g>
	<g class="city" id="city_08089">
		<path id="Gavà" d="
			M381.129,608.351l6.602,1.886l2.829,2.829l5.658,3.771l1.886,5.658l0.943,3.772l5.658,6.601l3.771,3.771l-10.373,1.886
			l-10.373,1.887l-6.602-16.974l-5.658-3.772l-2.829,1.887l-13.202,8.486l-7.544-5.658l-0.943-1.886l-3.772,0.943l5.658-2.829
			l0.943-4.715l6.601-9.43l5.658-3.772h0.943v0.943l2.829-0.943l1.886,1.887l7.545,3.771H381.129z" />
		<text x="378" y="616">Gavà</text>
		<text x="378" y="620" id="number_08089">{number_08089}</text>
	</g>
	<g class="city" id="city_08056">
		<path id="Castelldefels" d="
			M359.441,630.04l13.202-8.486l2.829-1.887l5.658,3.772l6.602,16.974h-27.347l-2.829-5.658v-2.829L359.441,630.04z" />
		<text x="372" y="632">Castelldefels</text>
		<text x="372" y="636" id="number_08056">{number_08056}</text>
	</g>
	<g class="city" id="city_08169">
		<path id="ElPratDeLlobregat" d="
			M419.793,627.21v-0.942l-2.829-2.829l-2.829-7.544h0.943v-1.886l3.771-1.886l-0.943-4.716l2.83-1.886l0.942-2.829l-2.829-2.828
			l3.771-4.715l1.887-2.829l-0.943-0.943l-1.886,1.886l-0.942-0.942l-0.943-2.829h1.886l0.942-1.886l2.83,0.942l5.658,3.772
			l3.771,2.829l4.715,5.657l8.487,3.772l8.487,0.942v0.943v0.942l1.886,1.887h-0.942l-1.887-1.887l-0.943,1.887l-2.828,5.657
			l1.886,0.943l-1.886,1.886h-0.943h-0.943l0.943,0.943l0.943,1.886l-0.943-0.943h-1.887h-0.942l-2.829,0.943l-1.887,2.829
			l-7.543,3.771l-14.146,5.658L419.793,627.21z" />
		<text x="438" y="612">El Prat de Llobregat</text>
		<text x="438" y="616" id="number_08169">{number_08169}</text>
	</g>
</g>
<text x="350" y="28.826">
	<tspan class="title" x="180" y="28.826">{title}, {year} {month}</tspan>
	<tspan class="subtitle" x="180" y="40.826">{subtitle}</tspan>
</text>
{legend}
<style>
.title {
	font-size: 10px;
	font-weight: 600;
	text-anchor: start;
}
.subtitle {
	font-size: 8px;
	font-weight: 400;
	text-anchor: start;
}
.sea {
	fill: #cacaca;
	stroke: #eee;
	stroke-miterlimit: 3.864;
	stroke-width: 2px;
}
.city path {
	fill: #E6E6E6;
	stroke: #000;
	stroke-width: 0.1;
	stroke-linecap: round;
	stroke-linejoin: round;
}
.city text {
	fill: purple;
	font-family: Sans;
	font-size: 4px;
	font-weight: 600;
	letter-spacing: 0;
	text-anchor: middle;
	line-height: 1.25;
	word-spacing: 0;
}
.city text[id^='number'] {
	fill: red;
}
.city path {
	fill: #777;
	stroke: #ccc;
}
#city_08069 path { fill: {color_08069}; }
#city_08076 path { fill: {color_08076}; }
#city_08147 path { fill: {color_08147}; }
#city_08001 path { fill: {color_08001}; }
#city_08208 path { fill: {color_08208}; }
#city_08114 path { fill: {color_08114}; }
#city_08066 path { fill: {color_08066}; }
#city_08196 path { fill: {color_08196}; }
#city_08158 path { fill: {color_08158}; }
#city_08072 path { fill: {color_08072}; }
#city_08123 path { fill: {color_08123}; }
#city_08157 path { fill: {color_08157}; }
#city_08905 path { fill: {color_08905}; }
#city_08211 path { fill: {color_08211}; }
#city_08068 path { fill: {color_08068}; }
#city_08263 path { fill: {color_08263}; }
#city_08221 path { fill: {color_08221}; }
#city_08295 path { fill: {color_08295}; }
#city_08077 path { fill: {color_08077}; }
#city_08244 path { fill: {color_08244}; }
#city_08217 path { fill: {color_08217}; }
#city_08289 path { fill: {color_08289}; }
#city_08073 path { fill: {color_08073}; }
#city_08200 path { fill: {color_08200}; }
#city_08204 path { fill: {color_08204}; }
#city_08020 path { fill: {color_08020}; }
#city_08301 path { fill: {color_08301}; }
#city_08089 path { fill: {color_08089}; }
#city_08056 path { fill: {color_08056}; }
#city_08169 path { fill: {color_08169}; }
</style>
</svg>
